<svg data-v-423bf9ae="" xmlns="http://www.w3.org/2000/svg" viewBox="0 0 454 90" class="iconLeft"><!----><!----><!----><g data-v-423bf9ae="" id="11c8f6d3-de19-48d9-b2bf-3e492ea15234" fill="#FFFFFF" transform="matrix(5.836575485636349,0,0,5.836575485636349,123.91377237259954,0.23346251939574358)"><path d="M6.47 12.67L5.25 12.67L5.25 7.98Q5.25 6.91 4.96 6.50Q4.66 6.09 3.90 6.09L3.90 6.09Q3.11 6.09 2.65 6.69Q2.19 7.29 2.19 8.39L2.19 8.39L2.19 12.67L0.97 12.67L0.97 6.86Q0.97 5.56 0.93 5.28L0.93 5.28L2.09 5.28Q2.10 5.31 2.11 5.46Q2.11 5.61 2.12 5.81Q2.13 6.00 2.15 6.54L2.15 6.54L2.17 6.54Q2.56 5.76 3.08 5.45Q3.59 5.14 4.33 5.14L4.33 5.14Q5.17 5.14 5.66 5.48Q6.15 5.81 6.34 6.54L6.34 6.54L6.36 6.54Q6.74 5.80 7.28 5.47Q7.83 5.14 8.60 5.14L8.60 5.14Q9.72 5.14 10.23 5.75Q10.74 6.36 10.74 7.75L10.74 7.75L10.74 12.67L9.52 12.67L9.52 7.98Q9.52 6.91 9.23 6.50Q8.93 6.09 8.17 6.09L8.17 6.09Q7.36 6.09 6.91 6.69Q6.47 7.29 6.47 8.39L6.47 8.39L6.47 12.67ZM18.86 8.97L18.86 8.97Q18.86 10.91 18.01 11.86Q17.15 12.81 15.52 12.81L15.52 12.81Q13.90 12.81 13.08 11.82Q12.25 10.83 12.25 8.97L12.25 8.97Q12.25 5.14 15.57 5.14L15.57 5.14Q17.26 5.14 18.06 6.07Q18.86 7.01 18.86 8.97ZM17.57 8.97L17.57 8.97Q17.57 7.44 17.11 6.74Q16.66 6.05 15.59 6.05L15.59 6.05Q14.51 6.05 14.02 6.76Q13.54 7.46 13.54 8.97L13.54 8.97Q13.54 10.43 14.02 11.17Q14.49 11.90 15.51 11.90L15.51 11.90Q16.62 11.90 17.09 11.19Q17.57 10.48 17.57 8.97ZM26.40 5.28L23.64 12.67L22.18 12.67L19.50 5.28L20.81 5.28L22.44 10.09Q22.52 10.36 22.91 11.71L22.91 11.71L23.15 10.91L23.41 10.10L25.09 5.28L26.40 5.28ZM28.62 3.71L27.38 3.71L27.38 2.53L28.62 2.53L28.62 3.71ZM28.62 12.67L27.38 12.67L27.38 5.28L28.62 5.28L28.62 12.67ZM36.72 9.24L31.45 9.24Q31.45 10.51 31.97 11.20Q32.50 11.89 33.51 11.89L33.51 11.89Q34.31 11.89 34.79 11.57Q35.27 11.25 35.44 10.75L35.44 10.75L36.52 11.06Q35.86 12.81 33.51 12.81L33.51 12.81Q31.87 12.81 31.01 11.83Q30.15 10.86 30.15 8.93L30.15 8.93Q30.15 7.10 31.01 6.12Q31.87 5.14 33.46 5.14L33.46 5.14Q36.72 5.14 36.72 9.07L36.72 9.07L36.72 9.24ZM31.46 8.29L35.45 8.29Q35.35 7.12 34.86 6.59Q34.36 6.05 33.44 6.05L33.44 6.05Q32.55 6.05 32.02 6.65Q31.50 7.25 31.46 8.29L31.46 8.29ZM39.55 12.67L38.32 12.67L38.32 7Q38.32 6.22 38.27 5.28L38.27 5.28L39.44 5.28Q39.49 6.54 39.49 6.79L39.49 6.79L39.52 6.79Q39.81 5.84 40.20 5.49Q40.58 5.14 41.28 5.14L41.28 5.14Q41.52 5.14 41.77 5.21L41.77 5.21L41.77 6.34Q41.53 6.27 41.12 6.27L41.12 6.27Q40.35 6.27 39.95 6.93Q39.55 7.59 39.55 8.82L39.55 8.82L39.55 12.67ZM49.17 9.24L43.89 9.24Q43.89 10.51 44.42 11.20Q44.95 11.89 45.96 11.89L45.96 11.89Q46.76 11.89 47.24 11.57Q47.72 11.25 47.89 10.75L47.89 10.75L48.97 11.06Q48.31 12.81 45.96 12.81L45.96 12.81Q44.32 12.81 43.46 11.83Q42.60 10.86 42.60 8.93L42.60 8.93Q42.60 7.10 43.46 6.12Q44.32 5.14 45.91 5.14L45.91 5.14Q49.17 5.14 49.17 9.07L49.17 9.07L49.17 9.24ZM43.91 8.29L47.90 8.29Q47.80 7.12 47.30 6.59Q46.81 6.05 45.89 6.05L45.89 6.05Q44.99 6.05 44.47 6.65Q43.95 7.25 43.91 8.29L43.91 8.29ZM51.67 8.94L51.67 8.94Q51.67 10.42 52.14 11.13Q52.60 11.84 53.54 11.84L53.54 11.84Q54.20 11.84 54.64 11.48Q55.08 11.13 55.18 10.39L55.18 10.39L56.42 10.47Q56.28 11.54 55.51 12.17Q54.75 12.81 53.57 12.81L53.57 12.81Q52.02 12.81 51.20 11.83Q50.39 10.85 50.39 8.97L50.39 8.97Q50.39 7.10 51.21 6.12Q52.03 5.14 53.56 5.14L53.56 5.14Q54.69 5.14 55.44 5.73Q56.19 6.32 56.38 7.35L56.38 7.35L55.12 7.44Q55.02 6.83 54.63 6.47Q54.24 6.10 53.53 6.10L53.53 6.10Q52.55 6.10 52.11 6.75Q51.67 7.40 51.67 8.94Z"></path></g><!----><g data-v-423bf9ae="" id="5db3582f-dea7-4b1b-a37b-b041f039b19a" transform="matrix(1.0512422306281344,0,0,1.0512422306281344,3.4518251601178846,-8.418495288157239)" stroke="none" fill="#D4CCD1"><path d="M85.649 88.282v-8.194h15.09v-5.501H86.831V27.628H101v-5.5H85.649v-8.461h14.493v-5.5H-2.395v5.5h15.74v8.461h-14.72v5.5H12v46.959H-.297v5.501h13.643v8.194H-.732v5.498h102.349v-5.498H85.649zm-7.218 0h-14.55v-8.194h14.55v8.194zM21.758 27.628h55.316v46.959H21.758V27.628zm20.354-5.501v-8.461h14.551v8.461H42.112zm14.551 57.961v8.194H42.112v-8.194h14.551zm21.768-57.961h-14.55v-8.461h14.55v8.461zm-57.867-8.46h14.33v8.461h-14.33v-8.461zm0 66.421h14.33v8.194h-14.33v-8.194z"></path><path d="M48.896 33.924c-9.695 0-17.555 7.86-17.555 17.557 0 9.694 7.86 17.556 17.555 17.556 9.698 0 17.559-7.861 17.559-17.556-.001-9.696-7.861-17.557-17.559-17.557zm-3.064 29.308V39.317l11.956 11.957-11.956 11.958z"></path></g><!----></svg>